<?xml version="1.0" encoding="UTF-8"?>
<svg id="Layer_1" xmlns="http://www.w3.org/2000/svg" version="1.1" viewBox="0 0 472 207">
  <!-- Generator: Adobe Illustrator 29.4.0, SVG Export Plug-In . SVG Version: 2.1.0 Build 152)  -->
  <defs>
    <style>
      .st0 {
        fill: #5d0096;
      }

      .st1 {
        fill: #fa4242;
      }

      .st2 {
        fill: #707372;
      }

      .st3 {
        fill: #e1251b;
      }
    </style>
  </defs>
  <g>
    <path class="st2" d="M139.71,164.07l.26.36h-2.33l-.07-.08c-1.57-1.93-2.83-4.25-3.73-6.9s-1.36-5.58-1.36-8.72c0-2.97.44-5.85,1.31-8.55.87-2.71,2.15-5.13,3.82-7.17l.07-.08h2.28l-.26.36c-1.54,2.15-2.75,4.56-3.59,7.18s-1.27,5.4-1.27,8.27.44,5.76,1.32,8.38c.88,2.6,2.07,4.95,3.55,6.95ZM145.38,157.02c-.62,0-1.02-.21-1.22-.63-.22-.48-.33-1.24-.33-2.27v-12.56h3.37v-2.08h-3.37v-4.44h-1.78l-.5,4.49-1.83.54v1.49h1.78v12.7c0,1.6.24,2.82.72,3.63.5.85,1.4,1.28,2.66,1.28.44,0,.85-.04,1.22-.13.37-.09.71-.21,1.01-.35l.12-.06v-2.1l-.33.16c-.42.22-.94.33-1.52.33ZM149.54,158.82h2.33v-19.34h-2.33v19.34ZM150.76,132.39c-.53,0-.92.19-1.18.56-.24.34-.36.78-.36,1.3,0,.55.13.99.38,1.33.27.35.64.53,1.12.53s.89-.18,1.14-.54c.24-.33.36-.78.36-1.32,0-.51-.11-.95-.32-1.29-.22-.38-.61-.57-1.14-.57ZM161.16,139.17c-.71,0-1.34.21-1.86.63-.51.41-.94.94-1.3,1.57-.23.41-.43.84-.61,1.29l-.21-3.18h-1.93v19.34h2.33v-10.09c0-1.21.15-2.38.44-3.47.29-1.09.7-1.99,1.24-2.69.52-.67,1.11-1,1.83-1,.21,0,.44.03.66.08s.43.12.61.19l.25.09.44-2.36-.17-.07c-.54-.22-1.12-.33-1.72-.33ZM172.61,141.25v-1.76s-8.07,0-8.07,0v2.12h5.47l-5.88,15.53v1.69s8.64,0,8.64,0v-2.12h-6.04l5.88-15.46ZM184.82,143.55c.37,1.29.56,2.71.56,4.21v1.72h-9.16c.04,5.09,1.48,7.57,4.39,7.57.64,0,1.27-.1,1.88-.29.61-.19,1.25-.52,1.89-.98l.36-.25v2.37l-.1.07c-.61.39-1.27.69-1.96.9-.69.21-1.44.31-2.21.31-1.54,0-2.82-.44-3.79-1.3-.96-.85-1.68-2.04-2.12-3.53-.44-1.47-.67-3.19-.67-5.12,0-3.1.49-5.57,1.45-7.35.98-1.82,2.48-2.75,4.46-2.75,1.31,0,2.4.42,3.23,1.24.81.8,1.42,1.87,1.79,3.18ZM177.34,142.75c-.61,1.02-.97,2.61-1.08,4.72h6.89c0-1.1-.14-2.13-.36-3.06-.24-.98-.62-1.77-1.12-2.36-.49-.57-1.1-.84-1.87-.84-1.04,0-1.84.51-2.46,1.54ZM198.59,141.66c.95,1.64,1.43,4.11,1.43,7.36s-.5,5.88-1.49,7.57c-1.01,1.72-2.42,2.6-4.21,2.6-1.22,0-2.22-.38-2.98-1.13-.52-.51-.94-1.09-1.27-1.72.03.49.04,1.02.04,1.6v9.28h-2.33v-27.71h1.93l.18,2.93c.38-.83.86-1.55,1.44-2.13.75-.76,1.76-1.15,3-1.15,1.85-.03,3.29.82,4.26,2.5ZM196.74,143.2c-.59-1.29-1.5-1.91-2.76-1.91s-2.18.6-2.84,1.83c-.68,1.26-1.02,3.03-1.02,5.25v1.63c0,2.27.36,4.03,1.07,5.25.7,1.19,1.61,1.77,2.79,1.77,1.08,0,1.94-.58,2.63-1.77.7-1.21,1.05-3.3,1.05-6.21,0-2.55-.31-4.52-.92-5.84ZM211.1,140.81c.73,1.09,1.1,2.77,1.1,5.01v13h-1.89l-.2-2.43c-.33.67-.75,1.26-1.24,1.76-.68.68-1.65,1.02-2.89,1.02-1.04,0-1.91-.27-2.57-.79-.66-.52-1.15-1.21-1.46-2.05-.3-.83-.46-1.74-.46-2.71,0-1.93.57-3.42,1.69-4.44,1.11-1.01,2.69-1.62,4.69-1.81l2-.13v-1.35c0-1.72-.22-2.96-.66-3.66-.42-.68-1.11-1.01-2.1-1.01-.45,0-.96.08-1.52.24s-1.17.44-1.81.83l-.21.13-.86-1.86.17-.11c1.38-.87,2.89-1.31,4.49-1.31,1.72,0,2.98.56,3.73,1.67ZM208.17,149.31c-2.9.23-4.31,1.64-4.31,4.32,0,1.17.23,2.07.7,2.67.46.59,1.08.87,1.92.87,1.15,0,1.98-.54,2.53-1.65.57-1.15.86-2.69.86-4.58v-1.81l-1.7.18ZM219.36,157.02c-.62,0-1.02-.21-1.22-.63-.22-.48-.33-1.24-.33-2.27v-12.56h3.37v-2.08h-3.37v-4.44h-1.78l-.5,4.49-1.83.54v1.49h1.78v12.7c0,1.6.24,2.82.72,3.63.5.85,1.4,1.28,2.66,1.28.44,0,.85-.04,1.22-.13.37-.09.71-.21,1.01-.35l.12-.06v-2.1l-.33.16c-.43.22-.95.33-1.52.33ZM224.25,132.39c-.53,0-.92.19-1.18.56-.24.34-.36.78-.36,1.3,0,.55.13.99.38,1.33.27.35.64.53,1.12.53s.89-.18,1.14-.54c.24-.33.36-.78.36-1.32,0-.51-.11-.95-.32-1.29-.22-.38-.61-.57-1.14-.57ZM223.03,158.82h2.33v-19.34h-2.33v19.34ZM237.87,131.39h2.37v27.43h-1.92l-.25-2.69c-.35.73-.83,1.38-1.41,1.95-.75.72-1.76,1.09-3,1.09-1.88,0-3.31-.86-4.26-2.57-.93-1.66-1.4-4.12-1.4-7.32s.49-5.76,1.45-7.49c.98-1.77,2.41-2.67,4.24-2.67,1.14,0,2.12.35,2.92,1.05.54.48.99,1.02,1.32,1.62,0-.16-.02-.31-.03-.46-.02-.42-.04-.82-.04-1.2v-8.74h0ZM234.05,141.29c-1.22,0-2.1.65-2.71,1.98-.62,1.37-.94,3.4-.94,6.03s.3,4.5.9,5.84c.58,1.3,1.48,1.93,2.74,1.93s2.17-.56,2.82-1.7c.66-1.17,1-2.85,1-5v-2.2c0-2.22-.34-3.95-1-5.14-.64-1.18-1.56-1.74-2.81-1.74ZM253.05,155.79l.36-.25v2.37l-.1.07c-.61.39-1.27.69-1.96.9-.69.21-1.44.31-2.21.31-1.54,0-2.82-.44-3.79-1.3-.96-.85-1.68-2.04-2.12-3.53-.44-1.47-.67-3.19-.67-5.12,0-3.1.49-5.57,1.45-7.35.98-1.82,2.48-2.75,4.46-2.75,1.31,0,2.4.42,3.23,1.24.82.8,1.42,1.88,1.8,3.19.37,1.29.56,2.71.56,4.21v1.72h-9.16c.04,5.09,1.48,7.57,4.39,7.57.64,0,1.27-.1,1.88-.29.61-.2,1.24-.53,1.88-.99ZM246.01,142.75c-.61,1.02-.97,2.61-1.08,4.72h6.89c0-1.1-.14-2.13-.36-3.06-.24-.98-.62-1.77-1.12-2.36-.49-.57-1.1-.84-1.87-.84-1.04,0-1.84.51-2.46,1.54ZM255.38,133l-.07-.08h-2.32l.25.35c1.47,2.08,2.66,4.46,3.54,7.09.88,2.63,1.32,5.42,1.32,8.29,0,1.85-.2,3.72-.58,5.56-.39,1.85-.94,3.63-1.66,5.32-.71,1.68-1.58,3.2-2.58,4.53l-.27.36h2.29l.07-.08c1.1-1.29,2.04-2.79,2.8-4.47.76-1.68,1.35-3.5,1.74-5.41.39-1.91.59-3.87.59-5.81,0-2.95-.45-5.81-1.34-8.52-.89-2.7-2.16-5.1-3.78-7.13ZM267.53,158.82h2.33v-19.34h-2.33v19.34ZM268.75,132.39c-.53,0-.92.19-1.18.56-.24.34-.36.78-.36,1.3,0,.55.13.99.38,1.33.27.35.64.53,1.12.53s.89-.18,1.14-.54c.24-.33.36-.78.36-1.32,0-.51-.11-.95-.32-1.29-.22-.38-.61-.57-1.14-.57ZM279.76,139.13c-1.24,0-2.25.38-3.02,1.13-.58.57-1.04,1.24-1.38,1.99l-.15-2.76h-1.93v19.34h2.33v-10.7c0-2.36.35-4.12,1.05-5.22.68-1.09,1.58-1.62,2.74-1.62.85,0,1.46.35,1.88,1.06.44.74.66,1.96.66,3.61v12.86h2.37v-13.36c0-2.12-.39-3.72-1.16-4.75-.79-1.05-1.93-1.58-3.39-1.58ZM287.39,162.15c0,1.05-.11,1.85-.34,2.36-.2.46-.54.68-1.07.68-.16,0-.33-.03-.5-.08-.18-.06-.35-.12-.51-.19l-.31-.13v2.26l.14.06c.18.08.39.14.63.19s.53.08.84.08h0c1.06-.03,1.91-.44,2.53-1.22s.92-2.05.92-3.87v-22.8h-2.33v22.66h0ZM288.61,132.39c-.53,0-.92.19-1.16.56-.23.34-.34.78-.34,1.29,0,.54.12.99.36,1.32.26.36.64.54,1.14.54s.85-.18,1.12-.53c.25-.33.38-.78.38-1.33,0-.51-.11-.95-.32-1.29-.23-.37-.62-.56-1.18-.56ZM303.26,143.55c.37,1.29.56,2.71.56,4.21v1.72h-9.16c.04,5.09,1.48,7.57,4.39,7.57.64,0,1.27-.1,1.88-.29.61-.19,1.25-.52,1.89-.98l.36-.25v2.37l-.1.07c-.61.39-1.27.69-1.96.9-.69.21-1.44.31-2.21.31-1.54,0-2.82-.44-3.79-1.3-.96-.85-1.68-2.04-2.12-3.53-.44-1.47-.67-3.19-.67-5.12,0-3.1.49-5.57,1.45-7.35.98-1.82,2.48-2.75,4.46-2.75,1.31,0,2.4.42,3.23,1.24.81.8,1.41,1.87,1.79,3.18ZM295.78,142.75c-.61,1.02-.97,2.61-1.08,4.72h6.89c-.01-1.1-.14-2.13-.36-3.06-.24-.98-.62-1.77-1.12-2.36-.49-.57-1.1-.84-1.87-.84-1.05,0-1.85.51-2.46,1.54ZM312.1,141.29c.74,0,1.49.21,2.24.61l.22.12.81-1.98-.18-.09c-.47-.25-.97-.44-1.48-.58-.53-.15-1.11-.22-1.75-.22-2.11,0-3.74.91-4.86,2.72-1.09,1.77-1.65,4.3-1.65,7.52s.51,5.5,1.52,7.2c1.03,1.73,2.64,2.61,4.77,2.61.53,0,1.11-.07,1.7-.22.59-.15,1.13-.34,1.59-.59l.12-.06v-2.17l-.33.16c-.96.48-1.93.72-2.88.72-1.41,0-2.43-.65-3.1-1.99-.69-1.37-1.04-3.3-1.04-5.74,0-2.69.39-4.73,1.16-6.07.77-1.32,1.8-1.95,3.14-1.95ZM322.3,157.02c-.62,0-1.02-.21-1.22-.63-.22-.48-.33-1.24-.33-2.27v-12.56h3.37v-2.08h-3.37v-4.44h-1.78l-.5,4.49-1.83.54v1.49h1.78v12.7c0,1.6.24,2.82.72,3.63.5.85,1.4,1.28,2.66,1.28.44,0,.85-.04,1.22-.13.37-.09.71-.21,1.01-.35l.12-.06v-2.1l-.33.16c-.42.22-.94.33-1.52.33ZM327.41,132.39c-.53,0-.92.19-1.18.56-.24.34-.36.78-.36,1.3,0,.55.13.99.38,1.33.27.35.64.53,1.12.53s.89-.18,1.14-.54c.24-.33.36-.78.36-1.32,0-.51-.11-.95-.32-1.29-.22-.38-.61-.57-1.14-.57ZM326.19,158.82h2.33v-19.34h-2.33v19.34ZM341.98,141.8c.99,1.73,1.49,4.21,1.49,7.35s-.5,5.62-1.49,7.35c-1.01,1.77-2.59,2.67-4.7,2.67s-3.6-.9-4.65-2.67c-1.02-1.73-1.54-4.23-1.54-7.43s.5-5.64,1.49-7.34c1.01-1.74,2.59-2.61,4.7-2.61,2.11,0,3.69.91,4.7,2.68ZM340.15,155.14c.63-1.3.95-3.33.95-6.02,0-2.54-.3-4.51-.9-5.87-.58-1.32-1.54-1.96-2.92-1.96s-2.28.63-2.88,1.91c-.62,1.32-.94,3.3-.94,5.89s.33,4.64.97,5.99c.63,1.31,1.57,1.95,2.89,1.95,1.28,0,2.21-.62,2.83-1.89ZM355.86,140.71c-.79-1.05-1.93-1.58-3.39-1.58-1.24,0-2.25.38-3.02,1.13-.58.57-1.04,1.24-1.38,1.99l-.15-2.76h-1.92v19.34h2.33v-10.7c0-2.36.35-4.12,1.05-5.22.68-1.09,1.58-1.62,2.74-1.62.85,0,1.46.35,1.88,1.06.44.74.66,1.96.66,3.61v12.86h2.37v-13.36c0-2.12-.39-3.72-1.17-4.75ZM138.96,53.99c-3.12,0-4.49-1.53-4.49-5.02s1.37-5.02,4.49-5.02,4.49,1.53,4.49,5.02-1.38,5.02-4.49,5.02ZM138.96,46.02c-1.51,0-1.96.53-1.96,2.96s.45,2.96,1.96,2.96,1.96-.53,1.96-2.96-.45-2.96-1.96-2.96ZM151.37,53.76v-6.58c0-.76-.27-1.08-.9-1.08-.57,0-1.43.51-2.1,1.02v6.64h-2.47v-9.56h2.16l.33.96c.74-.53,1.82-1.19,2.92-1.19,2.14,0,2.53,1.31,2.53,2.39v7.41h-2.47ZM163.51,46.37c-.67-.16-2.04-.33-2.9-.33-1.39,0-1.82.59-1.82,2.94,0,2.53.57,2.96,1.92,2.96.65,0,1.82-.12,2.67-.33l.22,2.16c-.8.16-1.8.24-2.98.24-3.25,0-4.35-1.76-4.35-5.02s1.29-5.02,4.35-5.02c1.16,0,2.08.04,3.04.16l-.15,2.24ZM167.49,49.8c.08,1.8.53,2.19,2.02,2.19,1.02,0,2.49-.18,3.49-.45v2.04c-1.04.25-2.88.41-3.78.41-3.18,0-4.16-1.24-4.16-5.02,0-3.29.67-5.02,4.16-5.02,3.17,0,3.92,1.16,3.92,5.02v.82h-5.65ZM169.21,45.74c-1.33,0-1.67.59-1.73,2.37h3.23c0-1.78-.3-2.37-1.5-2.37ZM189.38,53.76h-2.35l-1.43-4.39-1.45,4.39h-2.35l-2.74-9.56h2.63l1.39,6.11,1.31-4.39h2.41l1.31,4.39,1.39-6.11h2.63l-2.75,9.56ZM195.46,49.8c.08,1.8.53,2.19,2.02,2.19,1.02,0,2.49-.18,3.49-.45v2.04c-1.04.25-2.88.41-3.78.41-3.18,0-4.16-1.24-4.16-5.02,0-3.29.67-5.02,4.16-5.02,3.17,0,3.92,1.16,3.92,5.02v.82h-5.65ZM197.18,45.74c-1.33,0-1.67.59-1.73,2.37h3.23c.01-1.78-.3-2.37-1.5-2.37ZM205.24,49.8c.08,1.8.53,2.19,2.02,2.19,1.02,0,2.49-.18,3.49-.45v2.04c-1.04.25-2.88.41-3.78.41-3.18,0-4.16-1.24-4.16-5.02,0-3.29.67-5.02,4.16-5.02,3.17,0,3.92,1.16,3.92,5.02v.82h-5.65ZM206.96,45.74c-1.33,0-1.67.59-1.73,2.37h3.23c0-1.78-.3-2.37-1.5-2.37ZM219.54,53.76l-3.68-4.84v4.84h-2.47v-13.76h2.47v7.56l3.19-3.37h3.19l-4.02,4,4.51,5.56h-3.19ZM224.07,53.76v-13.76h2.47v13.76s-2.47,0-2.47,0ZM232.06,57.68h-2.47l1.63-3.96-3.35-9.52h2.69l1.92,6.21,2.1-6.21h2.65l-5.17,13.48Z"/>
    <path class="st0" d="M173.85,111.49v-26.09c0-3.2-1.41-4.3-3.44-4.3s-4.22,1.09-6.41,2.66v27.73h-9.84v-26.09c0-3.2-1.41-4.3-3.44-4.3s-4.22,1.02-6.41,2.5v27.89h-9.84v-38.13h8.59l1.09,3.2c3.2-2.19,6.95-4.14,11.25-4.14,3.67,0,6.25,1.8,7.58,4.92,3.44-2.5,7.42-4.92,12.11-4.92,5.55,0,8.59,4.22,8.59,10.78v28.28h-9.83ZM207.82,112.43c-12.42,0-17.89-6.09-17.89-20s5.47-20,17.89-20,17.89,6.09,17.89,20-5.47,20-17.89,20ZM207.82,80.63c-6.02,0-7.81,2.11-7.81,11.8s1.8,11.8,7.81,11.8,7.81-2.11,7.81-11.8-1.79-11.8-7.81-11.8ZM254.95,111.49l-1.33-3.83c-2.97,2.11-7.27,4.77-11.64,4.77-8.51,0-10.08-5.23-10.08-9.53v-29.54h9.84v26.25c0,3.05,1.09,4.3,3.59,4.3,2.27,0,5.7-2.03,8.36-4.06v-26.49h9.84v38.13s-8.58,0-8.58,0ZM294.09,111.49v-26.25c0-3.05-1.09-4.3-3.59-4.3-2.27,0-5.7,2.03-8.36,4.06v26.48h-9.84v-38.12h8.59l1.33,3.83c2.97-2.11,7.27-4.77,11.64-4.77,8.52,0,10.08,5.23,10.08,9.53v29.53h-9.85ZM309.71,127.51c-1.41,0-3.83-.16-5.47-.39v-8.36c1.95.47,3.52.7,5,.7,3.05,0,3.44-1.41,3.44-5.39v-40.7h9.84v40.78c.01,7.34-1.79,13.36-12.81,13.36ZM317.6,67.97c-3.98,0-5.55-1.72-5.55-5.7s1.56-5.63,5.55-5.63,5.55,1.64,5.55,5.63-1.56,5.7-5.55,5.7ZM352.91,111.49l-1.25-3.59c-4.06,2.81-7.89,4.38-11.88,4.38-6.02,0-10.78-1.72-10.78-10.78,0-11.25,4.77-14.06,22.66-13.83v-2.11c0-2.66.08-5.16-5.39-5.16-4.61,0-9.92,1.17-14.06,2.81v-8.52c4.22-1.33,10.7-2.27,14.3-2.27,9.14,0,14.69,2.89,14.69,11.87v27.19h-8.29ZM351.67,94.38c-9.92-.31-13.59.08-13.59,6.09,0,2.73,1.09,4.84,4.92,4.84,3.52,0,6.41-1.64,8.67-3.52v-7.41h0ZM388.77,81.72c-3.91,0-7.11,1.8-9.45,3.44v26.33h-9.84v-38.13h8.59l1.25,3.59c2.42-2.19,6.25-4.77,11.64-4.77.39,0,.86.08,1.33.08v9.69c-.78-.15-1.49-.23-3.52-.23ZM413.77,112.43c-12.42,0-17.89-6.09-17.89-20s5.47-20,17.89-20,17.89,6.09,17.89,20c0,13.9-5.47,20-17.89,20ZM413.77,80.63c-6.02,0-7.81,2.11-7.81,11.8s1.8,11.8,7.81,11.8,7.81-2.11,7.81-11.8-1.79-11.8-7.81-11.8Z"/>
    <g>
      <path class="st0" d="M86.18,77.23l-8.08,12.94-13.32,21.32h-17.98c-2.67,0-4.81-1.47-5.94-3.5-1.13-2.03-1.23-4.63.18-6.89l24.28-38.86c1.33-2.13,3.53-3.17,5.74-3.17s4.41,1.04,5.74,3.17l9.38,14.99Z"/>
      <path class="st1" d="M115.15,101.1l-16.19-25.9c-1.33-2.13-3.54-3.19-5.76-3.19s-4.43,1.06-5.76,3.19l-.63,1.01-.63,1.01-8.08,12.94,13.32,21.32h17.97c2.67,0,4.81-1.47,5.94-3.5,1.12-2.02,1.23-4.62-.18-6.88Z"/>
    </g>
  </g>
  <path class="st0" d="M437.44,73.36c.73,0,1.43.18,2.1.55.67.36,1.2.89,1.58,1.57.38.68.57,1.39.57,2.14s-.19,1.45-.56,2.12c-.38.67-.9,1.2-1.57,1.57-.67.38-1.38.56-2.12.56s-1.45-.19-2.12-.56c-.67-.38-1.2-.9-1.57-1.57-.38-.67-.56-1.38-.56-2.12s.19-1.46.57-2.14.91-1.2,1.58-1.57c.67-.36,1.37-.55,2.1-.55ZM437.44,74.2c-.58,0-1.14.15-1.68.44-.54.29-.96.71-1.27,1.26s-.46,1.12-.46,1.72.15,1.16.45,1.7c.3.54.72.96,1.26,1.27.54.3,1.11.46,1.7.46s1.16-.15,1.7-.46.96-.73,1.26-1.27c.3-.54.46-1.11.46-1.7s-.15-1.17-.46-1.72-.73-.97-1.27-1.26c-.54-.3-1.1-.44-1.69-.44ZM435.52,79.89v-4.51h.92c.86,0,1.34,0,1.44.01.3.03.54.09.71.18.17.09.31.24.42.43.11.19.17.41.17.65,0,.33-.11.6-.32.83-.21.23-.51.37-.9.43.14.05.24.11.32.17s.18.18.3.35c.03.04.14.23.33.55l.53.91h-1.13l-.38-.73c-.25-.49-.47-.8-.63-.93-.17-.13-.38-.19-.63-.19h-.24v1.85h-.91ZM436.43,77.33h.37c.53,0,.86-.02.99-.06s.23-.11.3-.21c.07-.1.11-.22.11-.35s-.04-.24-.11-.34-.17-.17-.31-.21c-.13-.04-.46-.06-.98-.06h-.37v1.23h0Z"/>
  <g>
    <path class="st3" d="M144.23,198.29h-7.26l-1.39,4.32h-2.8l6.32-18.71h3.1l6.32,18.71h-2.91l-1.39-4.32h0ZM137.72,196.08h5.76l-2.85-8.77h-.06l-2.85,8.77h0Z"/>
    <path class="st3" d="M159.92,184.06v16.07h8.14v2.48h-10.94v-18.55h2.8Z"/>
    <path class="st3" d="M173.58,184.14v2.67h-2.85v-2.67h2.85ZM173.46,189.4v13.2h-2.63v-13.2h2.63Z"/>
    <path class="st3" d="M180.09,183.33v19.27h-2.63v-19.27h2.63Z"/>
    <path class="st3" d="M186.71,183.33v19.27h-2.63v-19.27h2.63Z"/>
    <path class="st3" d="M192.05,189.4l3.33,10.3h.03l3.19-10.3h2.66l-4.43,12.95c-1.16,3.18-2.13,4.65-5.29,4.65h-1.08v-2.03h.53c1.58,0,2.35-.5,2.77-1.78l.2-.59-4.6-13.2h2.71,0Z"/>
    <path class="st3" d="M213.47,184.06l5.15,14.48h.06l5.1-14.48h4.02v18.55h-2.66v-15.26h-.06l-5.43,15.29h-2.16l-5.46-15.29h-.06v15.26h-2.49v-18.55h3.99Z"/>
    <path class="st3" d="M237.08,202.96c-3.88,0-5.73-2.37-5.73-5.9v-1.95c0-3.57,2.08-6.07,5.57-6.07s5.43,2.48,5.43,5.9v1.67h-8.48v.75c0,2.06.97,3.45,3.24,3.45,1.91,0,2.85-1,2.85-2.28v-.08h2.35v.17c0,2.48-1.88,4.34-5.24,4.34h0ZM233.86,195h5.95v-.34c0-2.12-.89-3.51-2.91-3.51s-3.05,1.39-3.05,3.59v.25h0Z"/>
    <path class="st3" d="M256.19,183.33v19.27h-2.22l-.2-2.37c-.91,1.5-2.16,2.7-4.32,2.7-2.85,0-4.6-2.2-4.6-5.4v-3.06c0-3.2,1.83-5.37,4.65-5.37,2.05,0,3.19,1.06,4.05,2.25v-8.02h2.63,0ZM247.46,194.61v2.78c0,2,1.05,3.45,2.91,3.45,1.69,0,3.19-1.5,3.19-3.62v-2.42c0-2.12-1.5-3.65-3.19-3.65-1.86,0-2.91,1.45-2.91,3.45Z"/>
    <path class="st3" d="M262.87,184.14v2.67h-2.85v-2.67h2.85ZM262.76,189.4v13.2h-2.63v-13.2h2.63Z"/>
    <path class="st3" d="M274.34,198.04v-.08h2.44v.31c0,2.59-1.72,4.71-5.15,4.71-3.63,0-5.62-2.31-5.62-6.04v-1.78c0-3.73,2.1-6.1,5.65-6.1s5.12,2.06,5.12,4.73v.31h-2.44v-.11c0-1.5-.75-2.76-2.69-2.76s-3.05,1.45-3.05,3.7v2.2c0,2.25,1,3.68,3.02,3.68,1.91,0,2.71-1.23,2.71-2.76h0Z"/>
    <path class="st3" d="M282.57,184.14v2.67h-2.85v-2.67h2.85ZM282.46,189.4v13.2h-2.63v-13.2h2.63Z"/>
    <path class="st3" d="M288.61,189.4l.22,2.51c1.05-1.7,2.38-2.81,4.49-2.81,2.38,0,3.88,1.64,3.88,4.23v9.27h-2.66v-8.83c0-1.48-.78-2.45-2.24-2.45-1.86,0-3.27,1.67-3.27,3.29v7.99h-2.63v-13.2h2.22,0Z"/>
    <path class="st3" d="M305.95,202.96c-3.88,0-5.73-2.37-5.73-5.9v-1.95c0-3.57,2.08-6.07,5.57-6.07s5.43,2.48,5.43,5.9v1.67h-8.48v.75c0,2.06.97,3.45,3.24,3.45,1.91,0,2.85-1,2.85-2.28v-.08h2.35v.17c0,2.48-1.88,4.34-5.23,4.34h0ZM302.74,195h5.95v-.34c0-2.12-.89-3.51-2.91-3.51s-3.05,1.39-3.05,3.59v.25h0Z"/>
  </g>
</svg>