<?xml version="1.0" encoding="UTF-8"?>
<svg xmlns="http://www.w3.org/2000/svg" width="1200" height="1200" viewBox="0 0 1200 1200">

    
    <defs>
      <linearGradient id="bg" x1="0%" y1="0%" x2="100%" y2="100%">
        <stop offset="0%" stop-color="#f8fbff"/>
        <stop offset="100%" stop-color="#eef6ff"/>
      </linearGradient>
      <linearGradient id="footerWave" x1="0%" y1="0%" x2="100%" y2="0%">
        <stop offset="0%" stop-color="#d8ecff" stop-opacity="0.35"/>
        <stop offset="100%" stop-color="#9ec7ef" stop-opacity="0.55"/>
      </linearGradient>
      <filter id="shadow" x="-20%" y="-20%" width="140%" height="140%">
        <feDropShadow dx="0" dy="12" stdDeviation="16" flood-color="#8aaad0" flood-opacity="0.18"/>
      </filter>
    </defs>
    <rect width="1200" height="1200" fill="url(#bg)"/>
    <rect x="28" y="28" width="1144" height="1144" rx="36" fill="#fff" stroke="#dbe8f5" stroke-width="2" filter="url(#shadow)"/>
    <path d="M 740 28 H 1172 V 90 H 776 Q 740 90 740 54 Z" fill="#1885cf"/>
    <path d="M 64 1110 C 190 1060, 324 1064, 444 1100 S 676 1142, 820 1110 S 1058 1060, 1136 1088 V 1172 H 64 Z" fill="url(#footerWave)" opacity="0.75"/>
    <path d="M 64 1140 C 204 1104, 358 1106, 500 1136 S 804 1174, 944 1144 S 1088 1108, 1138 1124" fill="none" stroke="#d4e8fb" stroke-width="4" opacity="0.55"/>
    
    <g>
      <rect x="768" y="36" width="378" height="52" rx="26" fill="#1885cf"/>
      <text x="957" y="52.76" text-anchor="middle" font-family="Noto Sans TC, Microsoft JhengHei, PingFang TC, sans-serif" font-size="22" font-weight="700" fill="#fff" dominant-baseline="hanging"><tspan x="957" dy="0">工學誠心診所｜自律神經衛教</tspan></text>
    </g>
    <text x="82" y="80" text-anchor="start" font-family="Noto Sans TC, Microsoft JhengHei, PingFang TC, sans-serif" font-size="82" font-weight="900" fill="#184f85" dominant-baseline="hanging"><tspan x="82" dy="0">HRV 結果代表什麼？</tspan></text>
    <g transform="translate(948 110) rotate(-12)">
      <path d="M 0 0 C 18 -34, 32 -56, 62 -54 C 48 -16, 26 26, -4 44 C -12 26, -8 10, 0 0 Z" fill="#ef8a1f"/>
      <path d="M 42 28 C 72 14, 98 20, 112 46 C 82 72, 44 76, 18 54 C 24 44, 32 36, 42 28 Z" fill="#9fd04b"/>
    </g>
  
    <rect x="68" y="246" width="510" height="734" rx="30" fill="#f4f8e9" stroke="#bfd98b" stroke-width="2"/>
    <rect x="622" y="246" width="510" height="734" rx="30" fill="#fff2e4" stroke="#f2c596" stroke-width="2"/>
    <rect x="118" y="274" width="410" height="64" rx="20" fill="#78a91d"/>
    <text x="323" y="288" text-anchor="middle" font-family="Noto Sans TC, Microsoft JhengHei, PingFang TC, sans-serif" font-size="44" font-weight="900" fill="#fff" dominant-baseline="hanging"><tspan x="323" dy="0">HRV 高</tspan></text>
    <text x="323" y="372" text-anchor="middle" font-family="Noto Sans TC, Microsoft JhengHei, PingFang TC, sans-serif" font-size="38" font-weight="800" fill="#4d8f12" dominant-baseline="hanging"><tspan x="323" dy="0">身心平衡，狀態佳！</tspan></text>
    <g transform="translate(132 448)">
      <circle cx="128" cy="106" r="88" fill="#eaf5d9"/>
      <path d="M 48 138 C 78 126, 106 126, 128 138 C 150 126, 178 126, 208 138" fill="none" stroke="#78a91d" stroke-width="6" stroke-linecap="round"/>
      <circle cx="64" cy="112" r="44" fill="#fff" stroke="#78a91d" stroke-width="4"/>
      <path d="M 52 112 h 24 l 10 -18 l 10 36 l 10 -18 h 24" fill="none" stroke="#78a91d" stroke-width="6" stroke-linecap="round" stroke-linejoin="round"/>
      <path d="M 182 82 L 182 172 M 154 140 H 210" stroke="#78a91d" stroke-width="6" stroke-linecap="round"/>
      <path d="M 176 98 L 188 98 L 188 152 L 176 152 Z" fill="#78a91d"/>
    </g>
    
    <g>
      <circle cx="138" cy="792" r="14" fill="#78a91d"/>
      <path d="M 131.7 792.28 L 136.6 796.76 L 145.28 787.24" fill="none" stroke="#fff" stroke-width="4" stroke-linecap="round" stroke-linejoin="round"/>
      <text x="176" y="779.12" text-anchor="start" font-family="Noto Sans TC, Microsoft JhengHei, PingFang TC, sans-serif" font-size="28" font-weight="700" fill="#1f2e4d" dominant-baseline="hanging"><tspan x="176" dy="0">調節能力佳</tspan></text>
    </g>
    
    <g>
      <circle cx="138" cy="866" r="14" fill="#78a91d"/>
      <path d="M 131.7 866.28 L 136.6 870.76 L 145.28 861.24" fill="none" stroke="#fff" stroke-width="4" stroke-linecap="round" stroke-linejoin="round"/>
      <text x="176" y="853.12" text-anchor="start" font-family="Noto Sans TC, Microsoft JhengHei, PingFang TC, sans-serif" font-size="28" font-weight="700" fill="#1f2e4d" dominant-baseline="hanging"><tspan x="176" dy="0">適應力較強</tspan></text>
    </g>
    
    <g>
      <circle cx="138" cy="940" r="14" fill="#78a91d"/>
      <path d="M 131.7 940.28 L 136.6 944.76 L 145.28 935.24" fill="none" stroke="#fff" stroke-width="4" stroke-linecap="round" stroke-linejoin="round"/>
      <text x="176" y="927.12" text-anchor="start" font-family="Noto Sans TC, Microsoft JhengHei, PingFang TC, sans-serif" font-size="28" font-weight="700" fill="#1f2e4d" dominant-baseline="hanging"><tspan x="176" dy="0">身心狀態較健康</tspan></text>
    </g>

    <rect x="672" y="274" width="410" height="64" rx="20" fill="#ef8a1f"/>
    <text x="877" y="288" text-anchor="middle" font-family="Noto Sans TC, Microsoft JhengHei, PingFang TC, sans-serif" font-size="44" font-weight="900" fill="#fff" dominant-baseline="hanging"><tspan x="877" dy="0">HRV 低</tspan></text>
    <text x="877" y="372" text-anchor="middle" font-family="Noto Sans TC, Microsoft JhengHei, PingFang TC, sans-serif" font-size="38" font-weight="800" fill="#ef8a1f" dominant-baseline="hanging"><tspan x="877" dy="0">身心失衡，需多關注！</tspan></text>
    <g transform="translate(796 428)">
      <circle cx="120" cy="112" r="84" fill="#ffe8d6"/>
      <path d="M 54 70 C 76 44, 118 36, 142 58 C 162 76, 166 116, 146 132 C 132 144, 104 150, 88 140 C 72 130, 58 112, 54 70 Z" fill="#184f85" opacity="0.9"/>
      <path d="M 50 42 C 70 22, 100 18, 122 34" fill="none" stroke="#9a9a9a" stroke-width="6" stroke-linecap="round"/>
      <path d="M 16 96 L 40 110 L 16 126" fill="none" stroke="#ef8a1f" stroke-width="6" stroke-linecap="round" stroke-linejoin="round"/>
      <rect x="214" y="70" width="52" height="112" rx="10" fill="#ffffff" stroke="#9ba9bd" stroke-width="4"/>
      <rect x="226" y="136" width="28" height="20" rx="4" fill="#ef8a1f"/>
      <path d="M 232 52 C 246 36, 274 34, 286 50 C 296 62, 292 82, 276 92 C 262 100, 240 102, 228 90 C 216 80, 218 62, 232 52 Z" fill="#9ba9bd" opacity="0.95"/>
    </g>
    
    <g>
      <circle cx="698" cy="792" r="14" fill="#ef8a1f"/>
      <path d="M 693.1 787.1 L 702.9 796.9 M 702.9 787.1 L 693.1 796.9" fill="none" stroke="#fff" stroke-width="4" stroke-linecap="round"/>
      <text x="736" y="779.12" text-anchor="start" font-family="Noto Sans TC, Microsoft JhengHei, PingFang TC, sans-serif" font-size="28" font-weight="700" fill="#1f2e4d" dominant-baseline="hanging"><tspan x="736" dy="0">壓力累積</tspan></text>
    </g>
    
    <g>
      <circle cx="698" cy="866" r="14" fill="#ef8a1f"/>
      <path d="M 693.1 861.1 L 702.9 870.9 M 702.9 861.1 L 693.1 870.9" fill="none" stroke="#fff" stroke-width="4" stroke-linecap="round"/>
      <text x="736" y="853.12" text-anchor="start" font-family="Noto Sans TC, Microsoft JhengHei, PingFang TC, sans-serif" font-size="28" font-weight="700" fill="#1f2e4d" dominant-baseline="hanging"><tspan x="736" dy="0">疲勞增加</tspan></text>
    </g>
    
    <g>
      <circle cx="698" cy="940" r="14" fill="#ef8a1f"/>
      <path d="M 693.1 935.1 L 702.9 944.9 M 702.9 935.1 L 693.1 944.9" fill="none" stroke="#fff" stroke-width="4" stroke-linecap="round"/>
      <text x="736" y="927.12" text-anchor="start" font-family="Noto Sans TC, Microsoft JhengHei, PingFang TC, sans-serif" font-size="28" font-weight="700" fill="#1f2e4d" dominant-baseline="hanging"><tspan x="736" dy="0">焦慮或憂鬱風險上升</tspan></text>
    </g>
    
    <g>
      <circle cx="698" cy="1014" r="14" fill="#ef8a1f"/>
      <path d="M 693.1 1009.1 L 702.9 1018.9 M 702.9 1009.1 L 693.1 1018.9" fill="none" stroke="#fff" stroke-width="4" stroke-linecap="round"/>
      <text x="736" y="1001.12" text-anchor="start" font-family="Noto Sans TC, Microsoft JhengHei, PingFang TC, sans-serif" font-size="28" font-weight="700" fill="#1f2e4d" dominant-baseline="hanging"><tspan x="736" dy="0">心血管風險可能增加</tspan></text>
    </g>
    <rect x="70" y="1040" width="1060" height="104" rx="26" fill="#fff3df" stroke="#f4d39c" stroke-width="2"/>
    <text x="110" y="1068" text-anchor="start" font-family="Noto Sans TC, Microsoft JhengHei, PingFang TC, sans-serif" font-size="28" font-weight="800" fill="#184f85" dominant-baseline="hanging"><tspan x="110" dy="0">給自己時間，給身體支持，您一定可以慢慢找回平衡與健康！</tspan></text>
    <g transform="translate(888 1052)">
      <circle cx="120" cy="34" r="26" fill="#ff9d9a"/>
      <path d="M 104 30 C 112 18, 128 18, 136 30 C 144 42, 132 54, 120 64 C 108 54, 96 42, 104 30 Z" fill="#fff" opacity="0.4"/>
      <path d="M 160 68 C 180 72, 194 88, 194 108 C 194 138, 172 160, 142 160 C 128 160, 110 152, 100 140" fill="none" stroke="#9fd04b" stroke-width="6" stroke-linecap="round"/>
      <path d="M 100 140 L 86 130" stroke="#9fd04b" stroke-width="6" stroke-linecap="round"/>
      <path d="M 100 140 L 102 162" stroke="#9fd04b" stroke-width="6" stroke-linecap="round"/>
    </g>
    
    <g>
      <circle cx="74" cy="1126" r="18" fill="#8ec7f3"/>
      <path d="M 66 1124 L 72 1130 L 82 1118" fill="none" stroke="#fff" stroke-width="4" stroke-linecap="round" stroke-linejoin="round"/>
      <text x="106" y="1108" text-anchor="start" font-family="Noto Sans TC, Microsoft JhengHei, PingFang TC, sans-serif" font-size="24" font-weight="700" fill="#3a79ad" dominant-baseline="hanging"><tspan x="106" dy="0">工學誠心診所  關心您的身心健康</tspan></text>
    </g>
  
</svg>
