<?xml version="1.0" encoding="UTF-8"?>
<svg xmlns="http://www.w3.org/2000/svg" width="1200" height="1200" viewBox="0 0 1200 1200">

    
    <defs>
      <linearGradient id="bg" x1="0%" y1="0%" x2="100%" y2="100%">
        <stop offset="0%" stop-color="#f8fbff"/>
        <stop offset="100%" stop-color="#eef6ff"/>
      </linearGradient>
      <linearGradient id="footerWave" x1="0%" y1="0%" x2="100%" y2="0%">
        <stop offset="0%" stop-color="#d8ecff" stop-opacity="0.35"/>
        <stop offset="100%" stop-color="#9ec7ef" stop-opacity="0.55"/>
      </linearGradient>
      <filter id="shadow" x="-20%" y="-20%" width="140%" height="140%">
        <feDropShadow dx="0" dy="12" stdDeviation="16" flood-color="#8aaad0" flood-opacity="0.18"/>
      </filter>
    </defs>
    <rect width="1200" height="1200" fill="url(#bg)"/>
    <rect x="28" y="28" width="1144" height="1144" rx="36" fill="#fff" stroke="#dbe8f5" stroke-width="2" filter="url(#shadow)"/>
    <path d="M 740 28 H 1172 V 90 H 776 Q 740 90 740 54 Z" fill="#1885cf"/>
    <path d="M 64 1110 C 190 1060, 324 1064, 444 1100 S 676 1142, 820 1110 S 1058 1060, 1136 1088 V 1172 H 64 Z" fill="url(#footerWave)" opacity="0.75"/>
    <path d="M 64 1140 C 204 1104, 358 1106, 500 1136 S 804 1174, 944 1144 S 1088 1108, 1138 1124" fill="none" stroke="#d4e8fb" stroke-width="4" opacity="0.55"/>
    
    <g>
      <rect x="768" y="36" width="378" height="52" rx="26" fill="#1885cf"/>
      <text x="957" y="52.76" text-anchor="middle" font-family="Noto Sans TC, Microsoft JhengHei, PingFang TC, sans-serif" font-size="22" font-weight="700" fill="#fff" dominant-baseline="hanging"><tspan x="957" dy="0">工學誠心診所｜自律神經衛教</tspan></text>
    </g>
    <text x="82" y="80" text-anchor="start" font-family="Noto Sans TC, Microsoft JhengHei, PingFang TC, sans-serif" font-size="82" font-weight="900" fill="#184f85" dominant-baseline="hanging"><tspan x="82" dy="0">HRV 指標怎麼看？</tspan></text>
    <g transform="translate(948 110) rotate(-12)">
      <path d="M 0 0 C 18 -34, 32 -56, 62 -54 C 48 -16, 26 26, -4 44 C -12 26, -8 10, 0 0 Z" fill="#ef8a1f"/>
      <path d="M 42 28 C 72 14, 98 20, 112 46 C 82 72, 44 76, 18 54 C 24 44, 32 36, 42 28 Z" fill="#9fd04b"/>
    </g>
  
    <rect x="68" y="276" width="506" height="390" rx="28" fill="#f2f7ff" stroke="rgba(78, 123, 189, 0.18)" stroke-width="2"/>
    <rect x="626" y="276" width="506" height="390" rx="28" fill="#fff7ee" stroke="rgba(78, 123, 189, 0.18)" stroke-width="2"/>
    <rect x="68" y="708" width="506" height="390" rx="28" fill="#f4f8e9" stroke="rgba(78, 123, 189, 0.18)" stroke-width="2"/>
    <rect x="626" y="708" width="506" height="390" rx="28" fill="#fff7ee" stroke="rgba(78, 123, 189, 0.18)" stroke-width="2"/>
    
    <g>
      <circle cx="116" cy="340" r="34" fill="#1180cf"/>
      <text x="116" y="324.04" text-anchor="middle" font-family="Noto Sans TC, Microsoft JhengHei, PingFang TC, sans-serif" font-size="38" font-weight="800" fill="#fff" dominant-baseline="hanging"><tspan x="116" dy="0">1</tspan></text>
    </g>
    <text x="170" y="304" text-anchor="start" font-family="Noto Sans TC, Microsoft JhengHei, PingFang TC, sans-serif" font-size="54" font-weight="900" fill="#1180cf" dominant-baseline="hanging"><tspan x="170" dy="0">SDNN：</tspan></text>
    <text x="170" y="370" text-anchor="start" font-family="Noto Sans TC, Microsoft JhengHei, PingFang TC, sans-serif" font-size="34" font-weight="800" fill="#184f85" dominant-baseline="hanging"><tspan x="170" dy="0">整體自律神經活性</tspan></text>
    <circle cx="320" cy="504" r="102" fill="#1180cf" opacity="0.96"/>
    <path d="M 260 506 h 36 l 16 -26 l 16 52 l 16 -20 h 56" fill="none" stroke="#fff" stroke-width="8" stroke-linecap="round" stroke-linejoin="round"/>
    <path d="M 232 504 C 232 424, 296 360, 376 360" fill="none" stroke="#a9d2f5" stroke-width="4" stroke-dasharray="6 9"/>
    <path d="M 408 504 C 408 424, 344 360, 264 360" fill="none" stroke="#a9d2f5" stroke-width="4" stroke-dasharray="6 9"/>
    <text x="160" y="638" text-anchor="start" font-family="Noto Sans TC, Microsoft JhengHei, PingFang TC, sans-serif" font-size="24" font-weight="600" fill="#22334f" dominant-baseline="hanging"><tspan x="160" dy="0">反映整體心律變異程度，數值越高，身體適應力越好。</tspan></text>

    
    <g>
      <circle cx="674" cy="340" r="34" fill="#ef8a1f"/>
      <text x="674" y="324.04" text-anchor="middle" font-family="Noto Sans TC, Microsoft JhengHei, PingFang TC, sans-serif" font-size="38" font-weight="800" fill="#fff" dominant-baseline="hanging"><tspan x="674" dy="0">2</tspan></text>
    </g>
    <text x="728" y="304" text-anchor="start" font-family="Noto Sans TC, Microsoft JhengHei, PingFang TC, sans-serif" font-size="54" font-weight="900" fill="#ef8a1f" dominant-baseline="hanging"><tspan x="728" dy="0">LF：</tspan></text>
    <text x="728" y="370" text-anchor="start" font-family="Noto Sans TC, Microsoft JhengHei, PingFang TC, sans-serif" font-size="34" font-weight="800" fill="#ef8a1f" dominant-baseline="hanging"><tspan x="728" dy="0">交感神經活性</tspan></text>
    <path d="M 812 542 L 866 410 L 834 410 L 898 300 L 872 430 L 906 430 Z" fill="#ef8a1f"/>
    <text x="718" y="638" text-anchor="start" font-family="Noto Sans TC, Microsoft JhengHei, PingFang TC, sans-serif" font-size="24" font-weight="600" fill="#22334f" dominant-baseline="hanging"><tspan x="718" dy="0">代表壓力、警覺與活躍狀態，數值偏高可能壓力過大。</tspan></text>

    
    <g>
      <circle cx="116" cy="772" r="34" fill="#78a91d"/>
      <text x="116" y="756.04" text-anchor="middle" font-family="Noto Sans TC, Microsoft JhengHei, PingFang TC, sans-serif" font-size="38" font-weight="800" fill="#fff" dominant-baseline="hanging"><tspan x="116" dy="0">3</tspan></text>
    </g>
    <text x="170" y="736" text-anchor="start" font-family="Noto Sans TC, Microsoft JhengHei, PingFang TC, sans-serif" font-size="54" font-weight="900" fill="#78a91d" dominant-baseline="hanging"><tspan x="170" dy="0">HF：</tspan></text>
    <text x="170" y="802" text-anchor="start" font-family="Noto Sans TC, Microsoft JhengHei, PingFang TC, sans-serif" font-size="34" font-weight="800" fill="#4d8f12" dominant-baseline="hanging"><tspan x="170" dy="0">副交感神經活性</tspan></text>
    <g transform="translate(250 878)">
      <path d="M 0 46 C 22 18, 56 4, 92 10 C 66 30, 40 64, 32 106 C 12 84, 0 66, 0 46 Z" fill="#78a91d"/>
      <path d="M 104 10 C 140 4, 174 18, 196 46 C 196 66, 184 84, 164 106 C 156 64, 130 30, 104 10 Z" fill="#5ca72f"/>
      <path d="M 114 90 C 130 96, 150 96, 172 88" fill="none" stroke="#d2e8b8" stroke-width="8" stroke-linecap="round"/>
    </g>
    <text x="160" y="1066" text-anchor="start" font-family="Noto Sans TC, Microsoft JhengHei, PingFang TC, sans-serif" font-size="24" font-weight="600" fill="#22334f" dominant-baseline="hanging"><tspan x="160" dy="0">代表放鬆、修復與休息狀態，數值越高，越有助於身心恢復。</tspan></text>

    
    <g>
      <circle cx="674" cy="772" r="34" fill="#ef8a1f"/>
      <text x="674" y="756.04" text-anchor="middle" font-family="Noto Sans TC, Microsoft JhengHei, PingFang TC, sans-serif" font-size="38" font-weight="800" fill="#fff" dominant-baseline="hanging"><tspan x="674" dy="0">4</tspan></text>
    </g>
    <text x="728" y="736" text-anchor="start" font-family="Noto Sans TC, Microsoft JhengHei, PingFang TC, sans-serif" font-size="54" font-weight="900" fill="#ef8a1f" dominant-baseline="hanging"><tspan x="728" dy="0">LF/HF：</tspan></text>
    <text x="728" y="802" text-anchor="start" font-family="Noto Sans TC, Microsoft JhengHei, PingFang TC, sans-serif" font-size="34" font-weight="800" fill="#ef8a1f" dominant-baseline="hanging"><tspan x="728" dy="0">壓力平衡指數</tspan></text>
    <g transform="translate(760 874)">
      <path d="M 42 64 H 308" stroke="#184f85" stroke-width="10" stroke-linecap="round"/>
      <path d="M 174 12 v 134" stroke="#184f85" stroke-width="10" stroke-linecap="round"/>
      <circle cx="174" cy="44" r="14" fill="#184f85"/>
      <path d="M 38 64 C 58 52, 88 36, 114 26" fill="none" stroke="#184f85" stroke-width="8" stroke-linecap="round"/>
      <path d="M 236 64 C 260 52, 284 36, 302 26" fill="none" stroke="#184f85" stroke-width="8" stroke-linecap="round"/>
      <path d="M 18 66 L 38 66 L 48 32 L 78 88 L 112 34 L 128 66 L 154 66" fill="none" stroke="#ef8a1f" stroke-width="6" stroke-linecap="round" stroke-linejoin="round"/>
      <path d="M 192 66 L 220 66 L 232 30 L 258 80 L 292 32 L 314 66 L 344 66" fill="none" stroke="#78a91d" stroke-width="6" stroke-linecap="round" stroke-linejoin="round"/>
    </g>
    <text x="718" y="1070" text-anchor="start" font-family="Noto Sans TC, Microsoft JhengHei, PingFang TC, sans-serif" font-size="24" font-weight="600" fill="#22334f" dominant-baseline="hanging"><tspan x="718" dy="0">評估交感與副交感的平衡狀態，接近 1 代表身心平衡良好。</tspan></text>
    
    <g>
      <circle cx="74" cy="1126" r="18" fill="#8ec7f3"/>
      <path d="M 66 1124 L 72 1130 L 82 1118" fill="none" stroke="#fff" stroke-width="4" stroke-linecap="round" stroke-linejoin="round"/>
      <text x="106" y="1108" text-anchor="start" font-family="Noto Sans TC, Microsoft JhengHei, PingFang TC, sans-serif" font-size="24" font-weight="700" fill="#3a79ad" dominant-baseline="hanging"><tspan x="106" dy="0">工學誠心診所  關心您的身心健康</tspan></text>
    </g>
  
</svg>
